<svg width="56" height="65" viewBox="0 0 56 65" fill="none" xmlns="http://www.w3.org/2000/svg">
<path d="M47.9189 39.5H8.08105L28 4.99902L47.9189 39.5Z" stroke="#FA4D4D" stroke-width="5"/>
<path d="M11.6364 51.1307V49.3636H20.9205V51.1307H17.3239V61H15.233V51.1307H11.6364ZM22.7102 61V49.3636H27.0739C27.9678 49.3636 28.7178 49.5189 29.3239 49.8295C29.9337 50.1402 30.3939 50.5758 30.7045 51.1364C31.0189 51.6932 31.1761 52.3428 31.1761 53.0852C31.1761 53.8314 31.017 54.4792 30.6989 55.0284C30.3845 55.5739 29.9205 55.9962 29.3068 56.2955C28.6932 56.5909 27.9394 56.7386 27.0455 56.7386H23.9375V54.9886H26.7614C27.2841 54.9886 27.7121 54.9167 28.0455 54.7727C28.3788 54.625 28.625 54.411 28.7841 54.1307C28.947 53.8466 29.0284 53.4981 29.0284 53.0852C29.0284 52.6723 28.947 52.3201 28.7841 52.0284C28.6212 51.733 28.3731 51.5095 28.0398 51.358C27.7064 51.2027 27.2765 51.125 26.75 51.125H24.8182V61H22.7102ZM28.7216 55.7273L31.6023 61H29.25L26.4205 55.7273H28.7216ZM42.679 49.3636V61H40.804L35.321 53.0739H35.2244V61H33.1165V49.3636H35.0028L40.4801 57.2955H40.5824V49.3636H42.679Z" fill="white"/>
</svg>
