<svg width="136" height="147" viewBox="0 0 136 147" fill="none" xmlns="http://www.w3.org/2000/svg">
<path d="M11.8524 64L23.5069 51.7271L66.9716 88.5L48.3564 106.978L11.8524 64Z" fill="white"/>
<path d="M101.376 46.9462L128.967 62.7583L101.376 78.5705L101.376 46.9462Z" fill="white"/>
<path d="M105.172 53.5802L125.059 64.9773L105.172 76.3744L105.172 53.5802Z" fill="black"/>
<path d="M69.5122 10.6912L75.799 21.5L30.1205 51.5L21.3961 36.5L69.5122 10.6912Z" fill="white"/>
<path d="M74.0457 21.7001L85.631 14.1099L104.418 43L96.6557 49L74.0457 21.7001Z" fill="white"/>
<ellipse cx="76.5641" cy="14" rx="14.1039" ry="14" fill="white"/>
<ellipse cx="76.5643" cy="14" rx="11.0817" ry="11" fill="black"/>
<ellipse cx="102.757" cy="50" rx="11.0817" ry="11" fill="white"/>
<ellipse cx="102.757" cy="50" rx="8.05939" ry="8" fill="black"/>
<ellipse cx="17.1262" cy="51" rx="17.1262" ry="17" fill="white"/>
<ellipse cx="17.1263" cy="51" rx="15.1114" ry="15" fill="black"/>
<rect x="45.334" y="137" width="46.3415" height="10" rx="5" fill="white"/>
<ellipse cx="68.5049" cy="108" rx="20.1485" ry="20" fill="white"/>
<ellipse cx="68.5049" cy="108" rx="17.1262" ry="17" fill="black"/>
</svg>
